/* XPM */
static char *result[] = {
/* columns rows colors chars-per-pixel */
"64 64 188 2 ",
"   c #000100",
".  c #010B06",
"X  c #0F0C02",
"o  c #010E09",
"O  c #0A0A07",
"+  c #110E04",
"@  c #0C1407",
"#  c #03140B",
"$  c #0B1509",
"%  c #031B0E",
"&  c #0C190B",
"*  c #121405",
"=  c #1D1905",
"-  c #1A1708",
";  c #031D11",
":  c #1E1B11",
">  c #1E1E1D",
",  c #121212",
"<  c #231C05",
"1  c #35110A",
"2  c #032313",
"3  c #032B19",
"4  c #042917",
"5  c #03331D",
"6  c #2D2305",
"7  c #272005",
"8  c #352A06",
"9  c #3A2D06",
"0  c #352907",
"q  c #3E3008",
"w  c #20201F",
"e  c #053C22",
"r  c #232323",
"t  c #2D2D2D",
"y  c #383839",
"u  c #473709",
"i  c #513F09",
"p  c #503F12",
"a  c #672416",
"s  c #732B1C",
"d  c #4B1C12",
"f  c #044325",
"g  c #064C2B",
"h  c #084729",
"j  c #07522E",
"k  c #085630",
"l  c #065C34",
"z  c #095B34",
"x  c #065531",
"c  c #07643A",
"v  c #096439",
"b  c #0A6B3C",
"n  c #086137",
"m  c #0B703F",
"M  c #59470C",
"N  c #5C490C",
"B  c #54420B",
"V  c #624D0C",
"C  c #6B550E",
"Z  c #725A0E",
"A  c #665217",
"S  c #745C15",
"D  c #644E12",
"F  c #7B6213",
"G  c #79610E",
"H  c #7B6424",
"J  c #245C40",
"K  c #097441",
"L  c #0B7B45",
"P  c #0B7F48",
"I  c #4A4A4B",
"U  c #545556",
"Y  c #5C5A5B",
"T  c #585557",
"R  c #615F60",
"E  c #676869",
"W  c #78787A",
"Q  c #893322",
"!  c #993825",
"~  c #A83E29",
"^  c #886C11",
"/  c #8E7117",
"(  c #997A14",
")  c #A17F15",
"_  c #836C23",
"`  c #92792E",
"'  c #D14D33",
"]  c #FD5E3E",
"[  c #F45A3B",
"{  c #E85638",
"}  c #0C834A",
"|  c #0D8A4E",
" . c #0D8E50",
".. c #0D9252",
"X. c #0E9A56",
"o. c #0E9E59",
"O. c #129455",
"+. c #0FA25B",
"@. c #0EA85E",
"#. c #10A65D",
"$. c #10A95F",
"%. c #10AC61",
"&. c #11B465",
"*. c #12BE6B",
"=. c #11B867",
"-. c #0FB063",
";. c #12C06C",
":. c #1BC472",
">. c #1EC876",
",. c #20C777",
"<. c #25CC7B",
"1. c #2ACD7E",
"2. c #2AC479",
"3. c #A48315",
"4. c #AA8716",
"5. c #AB8919",
"6. c #B38F18",
"7. c #B79219",
"8. c #B99419",
"9. c #BD9718",
"0. c #9C812F",
"q. c #BA9A36",
"w. c #B39228",
"e. c #C39C1A",
"r. c #CCA41B",
"t. c #D4AA1C",
"y. c #D6AC1D",
"u. c #DDB11D",
"i. c #E2B51E",
"p. c #EABB1F",
"a. c #E6B81F",
"s. c #F0BF1D",
"d. c #EEBE20",
"f. c #E3BB36",
"g. c #F1C11F",
"h. c #F2C121",
"j. c #F5C628",
"k. c #F1C635",
"l. c #F2C73B",
"z. c #BC9F45",
"x. c #BDA252",
"c. c #D9B74C",
"v. c #DABA56",
"b. c #C9AA4C",
"n. c #CEB461",
"m. c #F5CC45",
"M. c #F2CA48",
"N. c #F3CE56",
"B. c #F7D25D",
"V. c #E3C66C",
"C. c #F5D263",
"Z. c #F6D778",
"A. c #EBCF78",
"S. c #2DD181",
"D. c #32D485",
"F. c #3BD98C",
"G. c #38D789",
"H. c #42DD92",
"J. c #46E095",
"K. c #4DE59A",
"L. c #48E196",
"P. c #51E79D",
"I. c #5BEDA5",
"U. c #5FF0A8",
"Y. c #63F3AC",
"T. c #69F7B1",
"R. c #6BF8B2",
"E. c #89898A",
"W. c #99999A",
"Q. c #A6A6A6",
"!. c #AAAAAB",
"~. c #B6B6B6",
"^. c #BEBEBF",
"/. c #F7DB88",
"(. c #F8DE92",
"). c #FBE195",
"_. c #FBE39D",
"`. c #FAE5A7",
"'. c #BFC0C0",
"]. c #C4C4C4",
"[. c #CECECE",
"{. c #D3D3D3",
"}. c #DCDCDC",
"|. c #E4E4E4",
" X c #EEEEEE",
".X c #F2F2F2",
"XX c #FEFEFE",
"oX c None",
/* pixels */
"oXoXoXoXoXoXoXoXoXoXoXoXoXoXoXoXoXoXoXoXoXoXoXoXoXoXoXoXoXoXoXoXoXoXoXoXoXoXoXoXoXoXoXoXoXoXoXoXoXoXoXoXoXoXoXoXoXoXoXoXoXoXoXoX",
"oXoXoXoXoXoXoXoXoXoXoXoXoXoXoXoXoXoXoXoXoXoXoXoXoXoXoXoXoXoXoXoXoXoXoXoXoXoXoXoXoXoXoXoXoX  oXoXoXoXoXoXoXoXoXoXoXoXoXoXoXoXoXoX",
"oXoXoXoXoXoXoXoXoXoXoXoXoXoXoXoXoXoXoXoXoXoXoXoXoXoXoXoXoXoXoXoXoXoXoXoXoXoXoXoXoXoXoX  < N =   oXoXoXoXoXoXoXoXoXoXoXoXoXoXoXoX",
"oXoXoXoXoXoXoXoXoXoXoXoXoXoXoXoXoXoXoXoXoXoXoXoXoXoXoXoXoXoXoXoXoXoXoXoXoXoXoXoXoXoXoX* 7.h.4.X oXoXoXoXoXoXoXoXoXoXoXoXoXoXoXoX",
"oXoXoXoXoXoXoXoXoXoXoXoXoXoXoXoXoXoXoXoX          O O     oXoXoXoXoXoXoXoXoXoXoXoXoX  Z h.g.d.V   oXoXoXoXoXoXoXoXoXoXoXoXoXoXoX",
"oXoXoXoXoXoXoXoXoXoXoXoXoXoXoXoXoXoXoXoX  a ~ ~ ~ ~ ~ d   oXoXoXoXoXoXoXoXoXoXoXoX  6 u.r.D t.r.< oXoXoXoXoXoXoXoXoXoXoXoXoXoXoX",
"oXoXoXoXoXoXoXoXoXoXoXoXoXoXoXoXoXoXoXoX  ! ] [ [ Q { s   oXoXoXoXoXoXoXoXoXoXoXoXO ( p.M   C h.^   oXoXoXoXoXoXoXoXoXoXoXoXoXoX",
"oXoXoXoXoXoXoXoXoXoXoXoXoXoXoXoXoXoXoXoX  ! Q Q { s ' s   oXoXoXoXoXoXoXoXoXoXoX  B p.3.: E - 6.d.q   oXoXoXoXoXoXoXoXoXoXoXoXoX",
"oXoXoXoXoXoXoXoXoXoXoXoXoXoXoXoXoXoXoXoX  ! ' ' ] ] ] s   oXoXoXoXoXoXoXoXoXoXoX- e.u.0 E |.U q a.6.+ oXoXoXoXoXoXoXoXoXoXoXoXoX",
"oXoXoXoXoXoXoXoXoXoXoXoXoXoXoXoXoXoX      d a a a a a 1     oXoXoXoXoXoXoXoXoX  G g.G r [..X].> ^ d.C   oXoXoXoXoXoXoXoXoXoXoXoX",
"oXoXoXoXoXoXoXoXoXoXoXoXoXoXoXoXoX  t Y U U U U U U U U U U r   oXoXoXoXoXoX  0 u.e.= E..X.X.XW < t.t.< oXoXoXoXoXoXoXoXoXoXoXoX",
"oXoXoXoXoXoXoXoXoXoXoXoXoXoXoXoXoX  E..X X X.X X X X X.X X.XE   oXoXoXoXoXoXO 3.p.i I |.{.E }.}.y V h.(   oXoXoXoXoXoXoXoXoXoXoX",
"oXoXoXoXoXoXoXoXoXoXoXoXoXoXoXoXoX  W {.{.{.{.{.{.{.{.{.{.{.Y   oXoXoXoXoX  B d.( : ~..X~.> ].XXQ.- 5.d.u   oXoXoXoXoXoXoXoXoXoX",
"oXoXoXoXoXoXoXoXoXoXoXoXoXoXoXoXoX  $ w > r w r r r r w w > O oXoXoXoXoXoX< r.u.6 E  X.X~.> ]..X|.Y 9 u.7.+ oXoXoXoXoXoXoXoXoXoX",
"oXoXoXoXoXoXoXoXoXoXoXoXoXoXoXoXoXoXoX  y Q.!.!.Q.Q.Q.W.r   oXoXoXoXoXoX  F g.Z t {..X.X~.> ]..X.X].> ^ d.Z   oXoXoXoXoXoXoXoXoX",
"oXoXoXoXoXoXoXoXoXoXoXoXoXoXoXoXoXoXoX  I  X.X.X.X.XXX|.t oXoXoXoXoXoX  9 i.9.- W..X X.X{.E.}..X.X XE.< r.u.6 oXoXoXoXoXoXoXoXoX",
"oXoXoXoXoXoXoXoXoXoXoXoXoXoXoXoXoXoXoX  I  X X.X X.XXX|.t oXoXoXoXoXoXX 4.p.u I |..X X X}.W.|. X X.X}.y M d.e.oXoXoXoXoXoXoXoXoX",
"oXoXoXoXoXoXoXoXoXoXoXoXoXoXoXoXoXoXoX  I  X.X X.X.XXX|.t oXoXoXoXoX  N p.( > ~..X X X.X].y [..X X X.X!.- 3.j.6.  oXoXoXoXoXoXoX",
"oXoXoXoXoXoXoXoXoXoXoXoXoXoXoXoXoXoXoX  > Y Y Y Y Y R Y , oXoXoXoXoX< r.y.6 W .X.X.X.X.X X}. X.X.X.X.X.XE 8 u.r./ oXoXoXoXoXoXoX",
"oXoXoXoXoXoXoXoXoXoXoXoXoXoXoXoXoXoXoX  % f f f f h J h o oXoXoXoX  ^ p.C > Q.].'.'.^.^.'.'.^.^.'.^.'.'.W., F d.u.6 oXoXoXoXoXoX",
"oXoXoXoXoXoXoXoXoXoXoXoXoXoXoXoXoXoXoX  f *.;.*.*.>.R.2.4 oXoXoX  q i.u.0 + : : < : : : : : : : : : : : : X u d.u.0 oXoXoXoXoXoX",
"oXoXoXoXoXoXoXoXoXoXoXoXoXoXoXoXoXoXoX  e =.*.*.=.,.T.2.2 oXoXoX  Z h.h.t.e.e.e.e.e.e.r.e.e.r.e.e.e.r.e.e.e.t.h.h.V   oXoXoXoXoX",
"oXoXoXoXoXoXoXoXoXoXoXoXoXoXoXoXoXoXoX  e *.*.*.*.,.T.2.2 oXoXoX  6 4.e.e.9.9.e.9.e.e.e.e.9.e.e.e.9.e.e.e.9.9.9.3.= oXoXoXoXoXoX",
"oXoXoXoXoXoXoXoXoXoXoXoXoXoXoXoXoXoXoX  e =.;.*.*.,.T.2.2 oXoXoXoX  O X X X + X X X X X X X X + X X X X X X * X     oXoXoXoXoXoX",
"oXoXoXoXoXoXoXoXoXoXoXoXoXoXoXoXoXoXoX  g *.*.*.*.>.T.1.5   oXoXoXoXoXoXoXoXoXoXoXoXoXoXoXoXoXoXoXoXoXoXoXoXoXoXoXoXoXoXoXoXoXoX",
"oXoXoXoXoXoXoXoXoXoXoXoXoXoXoXoXoXoX  #  .;.*.*.*.>.T.D.m .   oXoXoXoXoXoXoXoXoXoXoXoXoXoXoXoXoXoXoXoXoXoXoXoXoXoXoXoXoXoXoXoXoX",
"oXoXoXoXoXoXoXoXoXoXoXoXoXoXoXoX  # f | *.*.*.*.*.:.I.K.*.L 5 o   oXoXoXoXoXoXoXoXoXoXoXoXoXoXoXoXoXoXoXoXoXoXoXoXoXoXoXoXoXoXoX",
"oXoXoXoXoXoXoXoXoXoXoXoXoXoX  # k o.=.*.*.*.*.*.*.=.D.R.H.:.=...g .   oXoXoXoXoXoXoXoXoXoXoXoXoXoXoXoXoXoXoXoXoXoXoXoXoXoXoXoXoX",
"oXoXoXoXoXoXoXoXoXoXoXoXoX  f X.;.;.*.*.*.*.*.*.*.*.;.F.T.Y.J.,.*.| 5   oXoXoXoXoXoXoXoXoXoXoXoXoXoXoXoXoXoXoXoXoXoXoXoXoXoXoXoX",
"oXoXoXoXoXoXoXoXoXoXoX  # b =.;.*.*.*.*.;.*.*.*.*.*.*.*.,.H.U.T.L.,.%.j . oXoXoXoXoXoXoXoXoXoXoXoXoXoXoXoXoXoXoXoXoXoXoXoXoXoXoX",
"oXoXoXoXoXoXoXoXoXoX  # } *.*.*.*.*.*.;.;.;.=.&.%.%.=.*.;.*.:.G.Y.Y.S.*.b . oXoXoXoXoXoXoXoXoXoXoXoXoXoXoXoXoXoXoXoXoXoXoXoXoXoX",
"oXoXoXoXoXoXoXoXoXoX# } ;.*.*.*.*.*.;.&. .l e 4 2 4 5 g P %.*.*.,.P.R.G.*.|  .oXoXoXoXoXoXoXoXoXoXoXoXoXoXoXoXoXoXoXoXoXoXoXoXoX",
"oXoXoXoXoXoXoXoXoX  K ;.*.*.*.*.*.*.} 5 + u C / 0.` H p = 2 v &.=.;.H.R.G.;.o.# oXoXoXoXoXoXoXoXoXoXoXoXoXoXoXoXoXoXoXoXoXoXoXoX",
"oXoXoXoXoXoXoXoX  g =.;.;.*.*.*.;.&.3 6 q.A.m.m.`._._./.c.i # +.;.*.;.H.R.S.&.| oXoXoXoXoXoXoXoXoXoXoXoXoXoXoXoXoXoXoXoXoXoXoXoX",
"oXoXoXoXoXoXoXoX% #.;.*.*.*.;.*.*.;.K = b.Z.l.d.k.k.N.`.V.0 x *.*.*.*.;.P.Y.,.&.e oXoXoXoXoXoXoXoXoXoXoXoXoXoXoXoXoXoXoXoXoXoXoX",
"oXoXoXoXoXoXoX  v *.*.*.*.*.*.*.*.;.&.5 B p.d.d.g.p.B._.H % @.;.*.;.*.*.>.Y.L.=.g   oXoXoXoXoXoXoXoXoXoXoXoXoXoXoXoXoXoXoXoXoXoX",
"oXoXoXoXoXoXoX% #.*.*.*.*.*.*.*.*.*.;.| @ 3.h.d.g.k._.n.= b ;.*.*.*.*.*.=.G.T.,.| . oXoXoXoXoXoXoXoXoXoXoXoXoXoXoXoXoXoXoXoXoXoX",
"oXoXoXoXoXoXoX| *.*.*.*.*.;.*.*.*.*.*.*.g 8 d.d.p.N./.D 3 &.*.*.*.;.*.*.;.:.Y.J.=.5   oXoXoXoXoXoXoXoXoXoXoXoXoXoXoXoXoXoXoXoXoX",
"oXoXoXoXoXoXz *.*.*.*.*.*.*.*.*.*.*.*.;.o.; N M q B A * } ;.*.*.*.*.*.*.*.*.H.Y.:.c   oXoXoXoXoXoXoXoXoXoXoXoXoXoXoXoXoXoXoXoXoX",
"oXoXoXoXoXoXe %.*.*.*.*.*.*.*.*.*.;.*.*.=.K % f c g 2 g =.*.*.*.*.*.*.*.*.*.1.T.1.| . oXoXoXoXoXoXoXoXoXoXoXoXoXoXoXoXoXoXoXoXoX",
"oXoXoXoXoXoX&.*.*.*.*.;.*.*.*.*.*.*.*.*.*.=.#.} c L o.&.*.*.*.*.*.*.*.*.*.*.:.Y.G.@.# oXoXoXoXoXoXoXoXoXoXoXoXoXoXoXoXoXoXoXoXoX",
"oXoXoXoXoXoXv *.*.*.*.*.;.;.;.;.;.;.;.;.;.=.l * 8 = e #.;.*.;.*.;.;.;.;.;.*.:.I.J.&.3 oXoXoXoXoXoXoXoXoXoXoXoXoXoXoXoXoXoXoXoXoX",
"oXoXoXoXoX  j *.*.*.*.*.%.o.o.o.+.o.o.o.&...$ ( d.e.6 c *.#.o.o.o.+.+.o.#.=.*.K.P.=.5 oXoXoXoXoXoXoXoXoXoXoXoXoXoXoXoXoXoXoXoXoX",
"oXoXoXoXoXO k *.;.*.*.=.f # & & & & & # b K 6 i.h.h.V e ..% $ & & & & $ 2 +.;.L.P.=.e   oXoXoXoXoXoXoXoXoXoXoXoXoXoXoXoXoXoXoXoX",
"oXoXoXoXoX  j ;.*.*.*.=.3 V x.q.8.8.8.i f | * 4.h.t.0 l K < 4.8.7.7.8./ $ X.;.I.P.=.5 oXoXoXoXoXoXoXoXoXoXoXoXoXoXoXoXoXoXoXoXoX",
"oXoXoXoXoX  h *.;.*.*.*.f D /.C.g.g.h.) # ..g = u 6 4 X.5 V h.h.g.m./.5.; %.;.I.L.&.4 oXoXoXoXoXoXoXoXoXoXoXoXoXoXoXoXoXoXoXoXoX",
"oXoXoXoXoXoX5 &.*.*.*.;.c 0 A./.h.h.h.i.u 5 X.L j c X.l = 9.s.d.g.B./.S 3 =.:.Y.F.@.% oXoXoXoXoXoXoXoXoXoXoXoXoXoXoXoXoXoXoXoXoX",
"oXoXoXoXoXoX% $.*.*.;.;...* z._.l.g.p.B.n.< e =.;.;.b O ) N.j.s.g.j.f.0 l ;.1.T.S.... oXoXoXoXoXoXoXoXoXoXoXoXoXoXoXoXoXoXoXoXoX",
"oXoXoXoXoXoX. | *.*.*.;.&.5 A /.Z.j.k.`.v.6 x *.*.;.| @ w.`.N.p.M.B.3.$ ..*.H.Y.:.b   oXoXoXoXoXoXoXoXoXoXoXoXoXoXoXoXoXoXoXoXoX",
"oXoXoXoXoXoX  k *.*.*.*.;.L - q._.C.Z./.F 2 $.*.*.*.=.h 9 V.(.M._.V.9 g *.:.U.L.=.5   oXoXoXoXoXoXoXoXoXoXoXoXoXoXoXoXoXoXoXoXoX",
"oXoXoXoXoXoXoX2 %.;.*.*.*.=.f 9 v.`.`.b.- K *.*.*.*.;.o.% ` ).`./.S % +.;.D.R.<...# oXoXoXoXoXoXoXoXoXoXoXoXoXoXoXoXoXoXoXoXoXoX",
"oXoXoXoXoXoXoX  b ;.;.*.*.*.+.4 i c.C.N 5 &.*.*.*.*.*.*.l < c.Z._ # L ;.:.Y.L.*.g   oXoXoXoXoXoXoXoXoXoXoXoXoXoXoXoXoXoXoXoXoXoX",
"oXoXoXoXoXoXoX  ; %.;.*.*.*.;.X.2 u ^ * | ;.*.*.*.*.*.;.-.2 V Z @ m *.;.K.Y.,...# oXoXoXoXoXoXoXoXoXoXoXoXoXoXoXoXoXoXoXoXoXoXoX",
"oXoXoXoXoXoXoXoX  x *.*.*.*.*.*.o.e   h =.*.*.*.*.*.*.*.*.L . ; } =.;.F.R.D.&.e   oXoXoXoXoXoXoXoXoXoXoXoXoXoXoXoXoXoXoXoXoXoXoX",
"oXoXoXoXoXoXoXoXoX. L *.*.*.*.*.;.&.L #.;.*.*.*.*.*.;.*.;.=.P +.;.;.F.R.F.*.n   oXoXoXoXoXoXoXoXoXoXoXoXoXoXoXoXoXoXoXoXoXoXoXoX",
"oXoXoXoXoXoXoXoXoX  %  .;.*.*.*.*.;.;.;.*.*.*.*.*.*.*.*.*.*.;.*.:.L.R.F.;.K . oXoXoXoXoXoXoXoXoXoXoXoXoXoXoXoXoXoXoXoXoXoXoXoXoX",
"oXoXoXoXoXoXoXoXoXoX  ;  .;.*.*.*.*.*.*.*.*.*.*.*.*.*.*.*.*.;.D.Y.Y.D.;.L o oXoXoXoXoXoXoXoXoXoXoXoXoXoXoXoXoXoXoXoXoXoXoXoXoXoX",
"oXoXoXoXoXoXoXoXoXoXoX  # L *.;.*.*.*.*.*.*.*.*.*.*.*.:.,.G.I.R.P.,.=.v . oXoXoXoXoXoXoXoXoXoXoXoXoXoXoXoXoXoXoXoXoXoXoXoXoXoXoX",
"oXoXoXoXoXoXoXoXoXoXoXoX  . j #.*.;.;.*.;.*.:.G.<.:.L.I.T.T.K.1.;.X.e   oXoXoXoXoXoXoXoXoXoXoXoXoXoXoXoXoXoXoXoXoXoXoXoXoXoXoXoX",
"oXoXoXoXoXoXoXoXoXoXoXoXoXoX  ; b $.*.;.;.*.:.K.D.>.K.H.D.>.*.o.z #   oXoXoXoXoXoXoXoXoXoXoXoXoXoXoXoXoXoXoXoXoXoXoXoXoXoXoXoXoX",
"oXoXoXoXoXoXoXoXoXoXoXoXoXoXoXoX  ; j } #.&.*.*.*.*.=.&.o.K f #   oXoXoXoXoXoXoXoXoXoXoXoXoXoXoXoXoXoXoXoXoXoXoXoXoXoXoXoXoXoXoX",
"oXoXoXoXoXoXoXoXoXoXoXoXoXoXoXoXoXoX    # 4 e g g h e 2 #     oXoXoXoXoXoXoXoXoXoXoXoXoXoXoXoXoXoXoXoXoXoXoXoXoXoXoXoXoXoXoXoXoX",
"oXoXoXoXoXoXoXoXoXoXoXoXoXoXoXoXoXoXoXoXoXoX          oXoXoXoXoXoXoXoXoXoXoXoXoXoXoXoXoXoXoXoXoXoXoXoXoXoXoXoXoXoXoXoXoXoXoXoXoX",
"oXoXoXoXoXoXoXoXoXoXoXoXoXoXoXoXoXoXoXoXoXoXoXoXoXoXoXoXoXoXoXoXoXoXoXoXoXoXoXoXoXoXoXoXoXoXoXoXoXoXoXoXoXoXoXoXoXoXoXoXoXoXoXoX"
};
