/* XPM */
static char *result[] = {
/* columns rows colors chars-per-pixel */
"64 64 158 2 ",
"   c #1E273E",
".  c #1F283F",
"X  c #22293F",
"o  c #35363F",
"O  c #3A3A3F",
"+  c #483F37",
"@  c #433E3D",
"#  c #453D37",
"$  c #5F4B2F",
"%  c #46403E",
"&  c #4C433C",
"*  c #5A4932",
"=  c #51473D",
"-  c #53493F",
";  c #5D4E3C",
":  c #564633",
">  c #65523B",
",  c #6B573B",
"<  c #6D593C",
"1  c #735C3A",
"2  c #7D6139",
"3  c #1F2D45",
"4  c #1F2F48",
"5  c #1E3049",
"6  c #1F3C57",
"7  c #183B58",
"8  c #222C43",
"9  c #292F40",
"0  c #273047",
"q  c #2C3140",
"w  c #2B344B",
"e  c #2F384F",
"r  c #21354F",
"t  c #313440",
"y  c #233A54",
"u  c #2E3851",
"i  c #343D54",
"p  c #3B445B",
"a  c #3F485F",
"s  c #154564",
"d  c #104D6F",
"f  c #0B567B",
"g  c #0D5A7F",
"h  c #0F5074",
"j  c #105377",
"k  c #4B4641",
"l  c #4F4840",
"z  c #544C43",
"x  c #41495F",
"c  c #434C62",
"v  c #475066",
"b  c #495167",
"n  c #4B546B",
"m  c #4F586F",
"M  c #50586F",
"N  c #515A71",
"B  c #576077",
"V  c #576078",
"C  c #5C657C",
"Z  c #AC741D",
"A  c #B57A1C",
"S  c #835E27",
"D  c #886126",
"F  c #976920",
"G  c #996B22",
"H  c #846539",
"J  c #8C6A38",
"K  c #85693C",
"L  c #936F37",
"P  c #916E38",
"I  c #957037",
"U  c #9B7437",
"Y  c #A67934",
"T  c #AA7C33",
"R  c #A97F38",
"E  c #B48235",
"W  c #BB8634",
"Q  c #BF8934",
"!  c #D28913",
"~  c #DB8E11",
"^  c #D48C18",
"/  c #DE9012",
"(  c #DF9319",
")  c #E1910F",
"_  c #E29415",
"`  c #E29518",
"'  c #DD9520",
"]  c #C48C33",
"[  c #C98F33",
"{  c #CC9133",
"}  c #D29532",
"|  c #DA9932",
" . c #E89E28",
".. c #E29E31",
"X. c #EEA52F",
"o. c #F3A629",
"O. c #F6AA2F",
"+. c #FAAD2F",
"@. c #FFB12E",
"#. c #EDA530",
"$. c #E8A534",
"%. c #F0A630",
"&. c #F2A830",
"*. c #FAAF32",
"=. c #F9B236",
"-. c #F3B139",
";. c #AD8B42",
":. c #E8B749",
">. c #E7B749",
",. c #F4BB45",
"<. c #FEC447",
"1. c #FFC648",
"2. c #0C5C83",
"3. c #0A6087",
"4. c #09648D",
"5. c #006493",
"6. c #066A94",
"7. c #006D9C",
"8. c #03729E",
"9. c #0274A1",
"0. c #0078A7",
"q. c #007AA9",
"w. c #616A81",
"e. c #687087",
"r. c #6B748B",
"t. c #737C94",
"y. c #0C85B4",
"u. c #0A85B4",
"i. c #138EBD",
"p. c #1590BF",
"a. c #7C839A",
"s. c #7F889F",
"d. c #7D88A1",
"f. c #828BA2",
"g. c #858FA8",
"h. c #8790A7",
"j. c #8C95AC",
"k. c #8F98AF",
"l. c #8690A9",
"z. c #939CB4",
"x. c #959FB8",
"c. c #97A0B7",
"v. c #9AA3BA",
"b. c #9FA8BF",
"n. c #A3ACC3",
"m. c #A7B0C7",
"M. c #ABB4CB",
"N. c #AFB8CF",
"B. c #B3BCD3",
"V. c #B7C0D7",
"C. c #BAC3DA",
"Z. c #BFC8DF",
"A. c #C3CCE3",
"S. c #C7D0E7",
"D. c #CBD4EB",
"F. c #CFD8EF",
"G. c #D1DAF1",
"H. c None",
/* pixels */
"H.H.H.H.H.H.H.H.H.H.H.H.H.H.H.H.H.H.H.H.H.H.H.H.H.H.H.8 w 0 w 0 w 0 w 8 8 H.H.H.H.H.H.H.H.H.H.H.H.H.H.H.H.H.H.H.H.H.H.H.H.H.H.H.",
"H.H.H.H.H.H.H.H.H.H.H.H.H.H.H.H.H.H.H.H.H.H.H.H.H.H.8 V f.f.s.f.f.f.r.e c 8 H.H.H.H.H.H.H.H.H.H.H.H.H.H.H.H.H.H.H.H.H.H.H.H.H.H.",
"H.H.H.H.H.H.H.H.H.H.H.H.H.H.H.H.H.H.H.H.H.H.H.H.H.X n z.v.v.v.v.v.z.b V M.N . H.H.H.H.H.H.H.H.H.H.H.H.H.H.H.H.H.H.H.H.H.H.H.H.H.",
"H.H.H.H.H.H.H.H.H.H.H.H.H.H.H.H.H.H.H.H.H.H.H.H.  p j.n.v.v.c.v.c.N c m.A.n.c   H.H.H.H.H.H.H.H.H.H.H.H.H.H.H.H.H.H.H.H.H.H.H.H.",
"H.H.H.H.H.H.H.H.H.H.H.H.H.H.H.H.H.H.H.H.H.H.H.H.e a.m.N.v.v.v.v.r.i z.S.F.C.z.i H.H.H.H.H.H.H.H.H.H.H.H.H.H.H.H.H.H.H.H.H.H.H.H.",
"H.H.H.H.H.H.H.H.H.H.H.H.H.H.H.H.H.H.H.H.H.H.H.0 r.n.B.n.v.v.v.s.i s.A.G.Z.V.B.s.w H.H.H.H.H.H.H.H.H.H.H.H.H.H.H.H.H.H.H.H.H.H.H.",
"H.H.H.H.H.H.H.H.H.H.H.H.H.H.H.H.H.H.H.H.H.H.8 B v.B.m.v.c.v.l.p w.C.G.A.V.V.C.B.w.8 H.H.H.H.H.H.H.H.H.H.H.H.H.H.H.H.H.H.H.H.H.H.",
"H.H.H.H.H.H.H.H.H.H.H.H.H.H.H.H.H.H.H.H.H.. c z.N.M.v.v.v.z.n M B.G.S.C.V.C.B.C.N.n   H.H.H.H.H.H.H.H.H.H.H.H.H.H.H.H.H.H.H.H.H.",
"H.H.H.H.H.H.H.H.H.H.H.H.H.H.H.H.H.H.H.H.H.i g.M.M.v.v.v.c.C a n.D.F.C.V.V.V.V.V.C.b.a H.H.H.H.H.H.H.H.H.H.H.H.H.H.H.H.H.H.H.H.H.",
"H.H.H.H.H.H.H.H.H.H.H.H.H.H.H.H.H.H.H.H.w a.m.B.n.v.v.v.t.i j.A.G.C.V.V.V.V.V.V.B.C.j.e H.H.H.H.H.H.H.H.H.H.H.H.H.H.H.H.H.H.H.H.",
"H.H.H.H.H.H.H.H.H.H.H.H.H.H.H.H.H.H.H.8 w.n.B.n.v.v.v.f.i t.A.F.A.V.V.V.V.V.V.V.V.V.B.t.8 H.H.H.H.H.H.H.H.H.H.H.H.H.H.H.H.H.H.H.",
"H.H.H.H.H.H.H.H.H.H.H.H.H.H.H.H.H.H.8 N v.B.n.v.c.v.j.x C C.G.A.B.V.V.V.V.V.V.V.V.V.C.B.C 8 H.H.H.H.H.H.H.H.H.H.H.H.H.H.H.H.H.H.",
"H.H.H.H.H.H.H.H.H.H.H.H.H.H.H.H.H.3 a k.B.M.v.v.v.c.N b M.F.S.C.C.V.V.V.V.V.V.V.V.V.V.C.m.b   H.H.H.H.H.H.H.H.H.H.H.H.H.H.H.H.H.",
"H.H.H.H.H.H.H.H.H.H.H.H.H.H.H.H.H.i f.m.N.v.v.v.v.w.p v.S.F.C.C.V.V.V.V.V.V.C.B.V.V.V.B.C.v.p H.H.H.H.H.H.H.H.H.H.H.H.H.H.H.H.H.",
"H.H.H.H.H.H.H.H.H.H.H.H.H.H.H.H.0 r.m.B.n.v.v.v.l.p d.S.G.A.C.C.C.C.V.C.C.C.V.C.C.C.C.C.C.C.s.8 H.H.H.H.H.H.H.H.H.H.H.H.H.H.H.H.",
"H.H.H.H.H.H.H.H.H.H.H.H.H.H.H.H.u r.f.a.t.t.t.t.N i d.x.k.g.g.g.g.g.g.g.g.g.g.g.g.g.g.g.g.g.d.i H.H.H.H.H.H.H.H.H.H.H.H.H.H.H.H.",
"H.H.H.H.H.H.H.H.H.H.H.H.H.H.H.8 # & l & & & + # 8 k z z z l - - - - - - - - z = - - - - - - z @ 8 H.H.H.H.H.H.H.H.H.H.H.H.H.H.H.",
"H.H.H.H.H.H.H.H.H.H.H.H.H.H.H.o A  .( ! ! ! ! Z @ { ,.-.#.#.#.#.%.#.#.%.o.#.#.#.#.#.#.#.#.#.#.{ o H.H.H.H.H.H.H.H.H.H.H.H.H.H.H.",
"H.H.H.H.H.H.H.H.H.H.H.H.H.H.H.+ ^ o.` ~ ) ~ ) G = %.<.=.*.+.+.+.O.+.+.+.*.*.+.+.+.+.+.+.+.+.+.#.& H.H.H.H.H.H.H.H.H.H.H.H.H.H.H.",
"H.H.H.H.H.H.H.H.H.H.H.H.H.H.H.: ( o._ ~ ~ ~ ) D > =.<.*.+.O.+.+.+.+.+.+.O.+.+.+.+.+.+.+.O.+.+.O.> H.H.H.H.H.H.H.H.H.H.H.H.H.H.H.",
"H.H.H.H.H.H.H.H.H.H.H.H.H.H.H.* ( o./ ~ ~ ~ ~ S > =.<.*.+.+.+.+.+.+.| | +.} | +.+.+.+.O.O.+.+.O.> H.H.H.H.H.H.H.H.H.H.H.H.H.H.H.",
"H.H.H.H.H.H.H.H.H.H.H.H.H.H.H.* ( o./ ~ ~ ~ ) S > =.<.*.+.O.+.+.%.I @ P +.P % U &.+.+.+.+.+.+.O.> H.H.H.H.H.H.H.H.H.H.H.H.H.H.H.",
"H.H.H.H.H.H.H.H.H.H.H.H.H.H.H.* ( o./ ~ ~ ~ ~ S > =.<.*.O.+.+.+.P @ T O.+.#.E @ L +.+.O.+.+.+.O.> H.H.H.H.H.H.H.H.H.H.H.H.H.H.H.",
"H.H.H.H.H.H.H.H.H.H.H.H.H.H.H.* ( o.~ ~ ~ ~ ) S > =.<.*.+.+.+.{ @ ] +.*.+.+.+.W @ } +.*.O.+.+.O.> H.H.H.H.H.H.H.H.H.H.H.H.H.H.H.",
"H.H.H.H.H.H.H.H.H.H.H.H.H.H.H.* ( o.( ~ ~ ~ / S > =.<.+.+.+.+.I ; O.*.*.+.O.*.O.; U @.+.+.+.+.O.> H.H.H.H.H.H.H.H.H.H.H.H.H.H.H.",
"H.H.H.H.H.H.H.H.H.H.H.H.H.H.H.* ( o./ ~ ~ ~ ) S > =.<.=.+.+.+.H 1 *.} U J Y } O.1 H *.+.O.+.+.O.> H.H.H.H.H.H.H.H.H.H.H.H.H.H.H.",
"H.H.H.H.H.H.H.H.H.H.H.H.H.H.H.* ( o./ ~ ~ ~ / S > =.<.+.+.+.+.P > J % ; 1 ; @ J ; L +.+.+.O.+.O.> H.H.H.H.H.H.H.H.H.H.H.H.H.H.H.",
"H.H.H.H.H.H.H.H.H.H.H.H.H.H.H.* ( o.( ~ ~ ~ / S > =.<.*.+.+.+.[ t + ] &.+.%.] @ o { +.+.+.+.+.O.> H.H.H.H.H.H.H.H.H.H.H.H.H.H.H.",
"H.H.H.H.H.H.H.H.H.H.H.H.H.H.H.* ( o.~ ~ ~ ~ / S > =.<.*.+.o.{ U t - } O.*.+.} = X U { O.+.+.+.+.> H.H.H.H.H.H.H.H.H.H.H.H.H.H.H.",
"H.H.H.H.H.H.H.H.H.H.H.H.H.H.H.* ( o.( ~ ~ ~ ~ S > =.<.=.| , % o t t t 1 H 1 o o o o @ , } +.+.&.> H.H.H.H.H.H.H.H.H.H.H.H.H.H.H.",
"H.H.H.H.H.H.H.H.H.H.H.H.H.H.H.* ( o./ ~ ~ ~ / S > =.<.$.- , } 2 1 | , 8 @ 8 , } 1 2 } > - ..+.O.> H.H.H.H.H.H.H.H.H.H.H.H.H.H.H.",
"H.H.H.H.H.H.H.H.H.H.H.H.H.H.H.* ( o./ ~ ~ ~ / S > =.<.K ; #.@.L > *.#.> t >  .+.> I +.$.; H +.O.> H.H.H.H.H.H.H.H.H.H.H.H.H.H.H.",
"H.H.H.H.H.H.H.H.H.H.H.H.H.H.H.* ( o./ ~ ~ ~ ) S > =.:.l E +.+.[ @ [ =.W X E +.[ % { +.+.E & $.O.> H.H.H.H.H.H.H.H.H.H.H.H.H.H.H.",
"H.H.H.H.H.H.H.H.H.H.H.H.H.H.H.* ( o./ ~ ~ ~ ~ S > =.>.k } +.+.O.H - [ [ @ } { = H O.+.+.{ @ | +.> H.H.H.H.H.H.H.H.H.H.H.H.H.H.H.",
"H.H.H.H.H.H.H.H.H.H.H.H.H.H.H.* ( o./ ~ ~ ~ ~ S > =.>.k ] +.+.+. .H @ ; q ; @ H #.+.+.+.W % ..+.> H.H.H.H.H.H.H.H.H.H.H.H.H.H.H.",
"H.H.H.H.H.H.H.H.H.H.H.H.H.H.H.* ( o./ ~ ~ ~ ) S > =.<.1 L +.+.+.*.O.] % 3 % [ O.+.+.+.+.K , O.O.> H.H.H.H.H.H.H.H.H.H.H.H.H.H.H.",
"H.H.H.H.H.H.H.H.H.H.H.H.H.H.H.* ( o.( ~ ~ ~ ) S > =.<.| } O.O.+.*.&.T @ H @ Y &.+.+.O.O.} | +.O.> H.H.H.H.H.H.H.H.H.H.H.H.H.H.H.",
"H.H.H.H.H.H.H.H.H.H.H.H.H.H.H.* ( o./ ~ ~ ~ ~ S > =.<.=.+.Y > L I > % T +.Y @ ; L J ; U +.+.+.O.> H.H.H.H.H.H.H.H.H.H.H.H.H.H.H.",
"H.H.H.H.H.H.H.H.H.H.H.H.H.H.H.* ( o./ ~ ~ ~ ) S > =.<.=.+.| J , , J } +.+.+.} H > > J | +.+.+.O.> H.H.H.H.H.H.H.H.H.H.H.H.H.H.H.",
"H.H.H.H.H.H.H.H.H.H.H.H.H.H.H.* ( o./ ~ ~ ~ ~ S , =.<.=.+.+.+.+.O.+.+.+.+.+.+.*.O.+.+.+.+.+.+.O.> H.H.H.H.H.H.H.H.H.H.H.H.H.H.H.",
"H.H.H.H.H.H.H.H.H.H.H.H.H.H.H.* ( o./ ~ ~ ~ / S > =.<.*.*.+.+.+.+.+.+.+.+.+.+.+.+.+.+.+.+.+.+.+.> H.H.H.H.H.H.H.H.H.H.H.H.H.H.H.",
"H.H.H.H.H.H.H.H.H.H.H.H.H.H.H.* ` O./ ) / / ) S > =.<.=.+.+.+.+.+.+.+.+.+.+.+.@.+.+.+.+.+.+.+.+.> H.H.H.H.H.H.H.H.H.H.H.H.H.H.H.",
"H.H.H.H.H.H.H.H.H.H.H.H.H.H.H.# G Y G F F F G $ & R ;.R T T T T T T T T T T T T T T T T T T T T % H.H.H.H.H.H.H.H.H.H.H.H.H.H.H.",
"H.H.H.H.H.H.H.H.H.H.H.H.H.H.H.e c v c x x x x e e b M n b b b b b b b b b b b b b b b b b b b b e H.H.H.H.H.H.H.H.H.H.H.H.H.H.H.",
"H.H.H.H.H.H.H.H.H.H.H.H.H.H.H.c v.N.c.h.z.c.c.C m B.D.B.B.B.B.B.B.B.B.B.B.B.B.B.B.B.B.B.B.N.B.N.n H.H.H.H.H.H.H.H.H.H.H.H.H.H.H.",
"H.H.H.H.H.H.H.H.H.H.H.H.H.H.H.c v.k.M i s.v.v.C N C.G.C.C.B.B.C.C.B.B.C.C.B.B.C.V.V.V.V.V.V.V.B.N H.H.H.H.H.H.H.H.H.H.H.H.H.H.H.",
"H.H.H.H.H.H.H.H.H.H.H.H.H.H.H.i c y s r a.v.v.w.m Z.G.C.B.C.C.B.B.C.B.B.B.C.C.B.V.V.V.V.V.V.V.V.m . H.H.H.H.H.H.H.H.H.H.H.H.H.H.",
"H.H.H.H.H.H.H.H.H.H.H.H.H.H.8 6 j 6.8.6 a.b.v.w.m Z.F.C.C.B.C.B.C.B.C.C.C.B.B.C.V.V.V.V.V.V.V.B.m 7 6 X H.H.H.H.H.H.H.H.H.H.H.H.",
"H.H.H.H.H.H.H.H.H.H.H.X 8 7 2.8.q.q.9.6 a.v.v.w.M Z.F.C.C.C.B.C.V.V.V.V.V.V.V.V.V.V.V.V.V.C.C.B.m f 7.s 3 H.H.H.H.H.H.H.H.H.H.H.",
"H.H.H.H.H.H.H.H.H.H.8 s 3.9.q.q.q.q.9.y a.v.v.w.M C.F.C.B.C.C.B.V.V.V.V.V.V.V.V.V.V.V.V.V.B.C.V.N f q.0.2.6 H.H.H.H.H.H.H.H.H.H.",
"H.H.H.H.H.H.H.H.H.3 j q.q.q.q.0.q.q.0.6 a.v.v.w.m Z.F.C.C.B.B.C.V.V.V.V.V.V.V.V.V.V.V.V.V.V.B.B.N f q.q.q.2.8 H.H.H.H.H.H.H.H.H.",
"H.H.H.H.H.H.H.H.H.0 6.i.u.q.0.q.q.q.9.y t.b.b.w.M C.F.C.B.C.C.B.V.V.V.V.V.V.V.V.V.V.V.V.V.V.C.V.M f q.8.5.6.5 H.H.H.H.H.H.H.H.H.",
"H.H.H.H.H.H.H.H.H.5 6.p.y.0.q.0.q.q.9.y t.b.v.w.M Z.F.C.B.C.B.C.V.V.V.V.V.V.V.V.V.V.V.V.V.V.V.B.M f q.8.5.6.5 H.H.H.H.H.H.H.H.H.",
"H.H.H.H.H.H.H.H.H.r 6.p.y.0.0.q.q.q.8.y f.v.v.w.m C.F.C.C.B.C.C.V.V.V.V.V.V.V.V.V.V.V.V.V.V.V.B.M f q.7.5.6.5 H.H.H.H.H.H.H.H.H.",
"H.H.H.H.H.H.H.H.H.5 6.p.y.0.q.0.q.q.9.y t.v.v.w.N C.F.C.B.B.C.B.V.V.V.V.V.V.V.V.V.V.V.V.V.V.C.B.M f q.7.5.6.4 H.H.H.H.H.H.H.H.H.",
"H.H.H.H.H.H.H.H.H.5 6.p.y.0.q.q.q.q.9.y a.v.v.w.m Z.F.C.C.C.B.C.V.V.V.V.V.V.V.V.V.V.V.V.V.C.B.C.M f q.7.5.6.4 H.H.H.H.H.H.H.H.H.",
"H.H.H.H.H.H.H.H.H.5 6.p.y.q.q.q.q.q.9.6 t.n.v.w.M Z.F.C.V.V.V.V.V.V.V.V.V.V.V.V.V.V.V.V.V.V.B.B.N f q.7.5.6.5 H.H.H.H.H.H.H.H.H.",
"H.H.H.H.H.H.H.H.H.5 6.p.y.q.q.0.q.q.9.6 t.v.v.w.N C.F.C.V.V.V.V.V.V.V.V.V.V.V.V.V.V.V.V.V.V.C.V.m f q.7.5.6.5 H.H.H.H.H.H.H.H.H.",
"H.H.H.H.H.H.H.H.H.5 6.p.y.0.0.q.q.q.9.y f.v.v.w.M C.F.C.V.V.C.V.V.V.V.V.V.V.V.V.V.V.B.C.V.V.V.B.M f q.7.5.6.5 H.H.H.H.H.H.H.H.H.",
"H.H.H.H.H.H.H.H.H.5 6.p.y.0.0.q.q.q.9.6 t.b.b.C N C.G.C.V.V.B.C.V.V.V.V.V.V.V.V.C.B.C.B.V.V.V.B.M f q.7.5.6.5 H.H.H.H.H.H.H.H.H.",
"H.H.H.H.H.H.H.H.H.5 6.p.y.0.0.0.q.q.9.6 f.v.v.w.N Z.G.C.B.V.V.B.C.B.V.B.V.B.C.B.B.C.B.C.C.B.C.B.M f q.7.5.6.5 H.H.H.H.H.H.H.H.H.",
"H.H.H.H.H.H.H.H.H.5 6.y.u.0.q.q.q.q.9.6 a.v.v.w.N C.S.C.C.C.C.C.C.C.C.C.C.C.C.C.C.V.C.C.C.C.C.B.N f q.9.8.6.4 H.H.H.H.H.H.H.H.H.",
"H.H.H.H.H.H.H.H.H.5 g 6.6.6.6.6.6.6.2.6 e.f.f.N b z.v.v.v.c.c.v.v.v.c.v.v.c.v.v.v.v.v.v.v.v.x.x.c d 6.6.6.f 3 H.H.H.H.H.H.H.H.H.",
"H.H.H.H.H.H.H.H.H.X 3 5 5 5 0 5 5 4 4 8 9 w e 8 8 w w e w e w w w w e w w w e w w w w w w w e e 8 4 5 5 5 3 8 H.H.H.H.H.H.H.H.H."
};
