/* XPM */
static char *_bcce84989214371bec7c2811f5cc953SmIB5J2xUEDIURTC[] = {
/* columns rows colors chars-per-pixel */
"64 64 134 2 ",
"   c None",
".  c #000000",
"X  c #0B0101",
"o  c gray4",
"O  c #120000",
"+  c #130C0C",
"@  c #141414",
"#  c #1B1B1B",
"$  c #320000",
"%  c #3E0000",
"&  c #272727",
"*  c #2D2D2D",
"=  c #323232",
"-  c #3C3C3C",
";  c #440000",
":  c #4A0000",
">  c #470D0D",
",  c #540000",
"<  c #580000",
"1  c #481212",
"2  c #770000",
"3  c #433A3A",
"4  c #444444",
"5  c #494545",
"6  c #4C4C4C",
"7  c #525252",
"8  c #595959",
"9  c #646464",
"0  c #6D6D6D",
"q  c #707070",
"w  c gray47",
"e  c #840000",
"r  c #8C0000",
"t  c #9A0000",
"y  c #AD0000",
"u  c #B40000",
"i  c #BD0000",
"p  c #C20000",
"a  c #CE0000",
"s  c #D20000",
"d  c #D00E0E",
"f  c #CB1111",
"g  c #F60000",
"h  c #FF0000",
"j  c #FF0A0A",
"k  c #FF1313",
"l  c #FF1B1B",
"z  c #FF2323",
"x  c #FE2C2C",
"c  c #FF3333",
"v  c #FE3A3A",
"b  c #C64545",
"n  c #C84444",
"m  c #CB5B5B",
"M  c #FF4444",
"N  c #FF4C4C",
"B  c #FF5050",
"V  c #FF5A5A",
"C  c #D47C7C",
"Z  c #FF6161",
"A  c #FF6F6F",
"S  c #FF7373",
"D  c #838383",
"F  c #8C8C8C",
"G  c #908F8F",
"H  c #AAAAAA",
"J  c gray70",
"K  c #BCBCBC",
"L  c #CF8B8B",
"P  c #FF8787",
"I  c #FF8E8E",
"U  c #FF9595",
"Y  c #FF9B9B",
"T  c #FFA4A4",
"R  c #FFACAC",
"E  c #FFB3B3",
"W  c #FFBBBB",
"Q  c #C4C4C4",
"!  c #CDCDCD",
"~  c #CFD3D3",
"^  c #D5D5D5",
"/  c gainsboro",
"(  c #FFC5C5",
")  c #FFC9C9",
"_  c #FFCECE",
"`  c #FFCFCF",
"'  c #FFD2D2",
"]  c #FFDDDD",
"[  c #FFDEDE",
"{  c gray93",
"}  c #FFE0E0",
"|  c #FFE4E4",
" . c #FFE6E6",
".. c #F9E7E7",
"X. c #F4E9E9",
"o. c #F5EDED",
"O. c #FFE8E8",
"+. c #FFE9E9",
"@. c #FFEAEA",
"#. c #FFECEC",
"$. c #FFEDED",
"%. c #FFEEEE",
"&. c #FAEEEE",
"*. c gray94",
"=. c #F1F1F1",
"-. c gray95",
";. c #F3F3F3",
":. c #F3F4F4",
">. c #F4F4F4",
",. c gray96",
"<. c #F6F6F6",
"1. c gray97",
"2. c #F5F5F5",
"3. c #FFF0F0",
"4. c #FFF2F2",
"5. c #FFF3F3",
"6. c #FFF4F4",
"7. c #FFF5F5",
"8. c #FDF7F7",
"9. c #FFF7F7",
"0. c #F8F8F8",
"q. c gray98",
"w. c #FDF8F8",
"e. c #FFF8F8",
"r. c #FFF9F9",
"t. c snow",
"y. c #FFFBFB",
"u. c #FDFDFD",
"i. c #FFFCFC",
"p. c #FFFDFD",
"a. c #FEFEFE",
"s. c #FFFEFE",
"d. c white",
"f. c #FEFEFE",
/* pixels */
"                                                                                                                                ",
"                                                                                                                                ",
"                                                                                                                                ",
"                                                                                                                                ",
"                                          . . . . . . . . . . . . . . . . . . . . . .                                           ",
"                                          . . . . . . . . . . . . . . . . . . . . . .                                           ",
"                                          . . . . o o o o X X O O O O + o o o . . . .                                           ",
"                            . . . . . . . . . . = Q ! ! m a a a a a a m ! ! K & . . . . . . . . . .                             ",
"                            . . . . . . . . . . 4 q.d.d.S h h h h h h S d.d.-.= . . . . . . . . . .                             ",
"                            . . . . . . . . . . - <.d.d.S h h h h h h S d.d.{ * . . . . . . . . . .                             ",
"                            . . . # 9 9 9 9 9 9 F q.d.d.S h h h h h h S d.d.<.D 9 9 9 9 9 9 # . . .                             ",
"                      . . . . . . 4 q.d.d.d.d.d.d.d.d.d.S h h h h h h S d.d.d.d.d.d.d.d.d.q.4 . . . . . .                       ",
"                      . . . . . . 4 q.d.d.d.d.d.d.d.d.d.S h h h h h h S d.d.d.d.d.d.d.d.d.<.4 . . . . . .                       ",
"                      . . . . X . 5 q.d.d.d.d.d.d.t.t.d.S h h h h h h S d.t.t.d.d.d.d.d.d.<.5 . X X . . .                       ",
"              . . . . . . X e u y b t.d.d.d.d.d.] V N N z h h h h h h z N N V ] d.d.d.d.d.6.n u u e X . . . . . .               ",
"              . . . . . . X p h h M t.d.d.d.d.d._ j h h h h h h h h h h h h j _ d.d.d.d.d.6.M h h i X . . . . . .               ",
"              . . . . . . X p h h M t.d.d.d.d.d.' k h h h h h h h h h h h h k ' d.d.d.d.d.t.M h h i X . . . . . .               ",
"              . . . # - - 3 d h h v ( ) ) ) ) ) Y j h h h h h h h h h h h h j Y ) ) ) ) ) W c h h f 3 - - @ . . .               ",
"              . . . 0 <.:.X.v h h h j j j j j j j h h h h h h h h h h h h h h j j j j j j j h h h M o.<.-.8 . . .               ",
"              . . . q d.d.6.v h h h h h h h h h h h h h h h h h h h h h h h h h h h h h h h h h h M t.d.d.8 . . .               ",
"              . . . q d.d.4.v h h h h h h h h h h h h h h h h h h h h h h h h h h h h h h h h h h M 6.d.d.8 . . .               ",
"        . . . . . . q d.d.t.E Y Y A h h h h h h l I Y Y Y Y Y Y Y Y Y Y Y Y I l h h h h h h S Y Y E d.d.d.8 . . . . . .         ",
"        . . . . . . q d.d.d.d.d.d.W h h h h h h c 4.d.d.d.d.d.d.d.d.d.d.d.d.$.x h h h h h j W d.d.d.d.d.d.8 . . . . . .         ",
"        . . . . . . 0 d.d.d.d.d.d.W h h h h h h x $.d.d.d.d.d.d.d.d.d.d.d.d.O.x h h h h h j W d.d.d.d.d.d.8 . . . . . .         ",
"        . . . * - = G d.d.d.d.d.d.W j h h l x z B 4.d.d.d.d.d.d.d.d.d.d.d.d.$.N z x l h h j W d.d.d.d.d.d.w * = & . . .         ",
"        . . @ Q <.-.q.d.d.d.d.d.d.W j h h U $.O.$.d.d.d.d.d.d.d.d.d.d.d.d.d.d.$.O.$.U h h j W d.d.d.d.d.d.<.{ -.Q @ . .         ",
"        . . @ ^ d.d.d.d.d.d.d.d.d.W j h h T d.d.d.d.d.d.d.d.d.d.d.d.d.d.d.d.d.d.d.d.T h h j W d.d.d.d.d.d.d.d.d.^ @ . .         ",
"        . . @ ^ d.d.d.d.d.d.d.d.d.W j h h T d.d.d.d.d.d.d.d.d.d.d.d.d.d.d.d.d.d.d.d.T h h j W d.d.d.d.d.d.d.d.d.! @ . .         ",
"        . . @ ^ d.d.d.d.d.d.d.d.d.W j h h T d.d.d.d.d.d.d.d.d.d.d.d.d.d.d.d.d.d.d.d.T h h j W d.d.d.d.d.d.d.d.d.! @ . .         ",
"        . . @ ^ d.d.d.d.d.d.d.d.d.W h h h T d.d.d.d.d.d.d.d.d.d.d.d.d.d.d.d.d.d.d.d.T h h j W d.d.d.d.d.d.d.d.d.! @ . .         ",
"        . . @ ^ d.d.d.d.d.d.d.d.d.W h h h T d.d.d.d.d.d.d.d.d.d.d.d.d.d.d.d.d.d.d.d.T h h j W d.d.d.d.d.d.d.d.d.! @ . .         ",
"        . . @ ^ d.d.d.d.d.d.O.} | Y h h h T d.d.d.d.d.d.d.d.d.d.d.d.d.d.d.d.d.d.d.d.T h h h R O.| $.d.d.d.d.d.d.! @ . .         ",
"        . . @ ^ d.d.d.d.d.6.V l z k h h h T d.d.d.d.d.d.d.d.d.d.d.d.d.d.d.d.d.d.d.d.T h h h l z z Z t.d.d.d.d.d.! @ . .         ",
"        . . @ ^ d.d.d.d.d.6.v h h h h h h T d.d.d.d.d.d.d.d.d.d.d.d.d.d.d.d.d.d.d.d.T h h h h h h M t.d.d.d.d.d.! @ . .         ",
"        . . @ ^ d.d.d.d.d.t.v h h h h h h T d.d.d.d.d.d.d.d.d.d.d.d.d.d.d.d.d.d.d.d.T h h h h h h M d.d.d.d.d.d.~ @ . .         ",
"        . . + C U U U U U P z h h h h h h Z Y U R t.d.d.d.d.d.d.d.d.d.d.d.d.t.R U Y V h h h h h h x Y T R R R R L + . .         ",
"        . . O s h h h h h h h h h h h h h h h h v 4.d.d.d.d.d.d.d.d.d.d.d.d.$.x h h h h h h h h h h h h h h h h a O . .         ",
"        . . O s h h h h h h h h h h h h h h h h v 4.d.d.d.d.d.d.d.d.d.d.d.d.$.c h h h h h h h h h h h h h h h h a O . .         ",
"        . . O s h h h h h h g g g g g g g g g g v &.q.q.q.q.q.q.q.q.q.q.q.q...x g g g g g g g g g g h h h h h h a O . .         ",
"        . . O s h h h h h g 2 % ; ; ; ; ; ; ; ; 1 6 6 6 6 6 6 6 6 6 6 6 5 5 5 > ; ; ; ; ; ; ; ; ; e h h h h h h a O . .         ",
"        . . O s h h h h h g ; . . . . . . . . . . . . . . . . . . . . . . . . . . . . . . . . . . , h h h h h h a O . .         ",
"        . . O s h h h h h h : . . . . . . . . . . . . . . . . . . . . . . . . . . . . . . . . . . < h h h h h h s O . .         ",
"        . . X r y y y y y y $ . . @ 6 7 7 7 7 7 4 . . . * 7 7 7 7 7 7 * . . . 4 7 7 7 7 7 6 @ . . ; i i i i i p t X . .         ",
"        . . . . . . . . . . . . . 4 <.d.q.d.q.d.! @ . . F d.q.d.q.q.d.F . . @ ! d.q.d.q.d.<.4 . . . X X X X X X X . . .         ",
"        . . . . . . . . . . . . . 4 q.d.d.d.d.d.! @ . . F d.d.d.d.d.d.F . . @ ! d.d.d.d.d.q.4 . . . . . . . . . . . . .         ",
"        . . . . . . . . . . . . . 6 q.d.d.d.d.d.! @ . . F d.d.d.d.d.d.F . . @ ! d.d.d.d.d.q.4 . . . . . . . . . . . . .         ",
"              . . . . . . . D J J ! d.d.d.d.d.d.! @ . . F d.d.d.d.d.d.F . . @ ^ d.d.d.d.d.d.Q J J D . . . . . . .               ",
"              . . . . . . o K d.d.d.d.d.d.d.d.d.! @ . . F d.d.d.d.d.d.F . . @ ^ d.d.d.d.d.d.d.d.d.K o . . . . . .               ",
"              . . . . . . o K d.d.d.d.d.d.d.d.d.! o . . F d.d.d.d.d.d.F . . @ ^ d.d.d.d.d.d.d.d.d.K o . . . . . .               ",
"              . . . . . . o K d.d.d.d.d.d.d.d.d./ 6 - - H d.d.d.d.d.d.H - - 6 / d.d.d.d.d.d.d.d.d.K o . . . . . .               ",
"                      . . o K d.d.d.d.d.d.d.d.d.d.<.<.<.q.d.d.d.d.d.d.q.<.<.<.d.d.d.d.d.d.d.d.d.d.K o . .                       ",
"                      . . o K d.d.d.d.d.d.d.d.d.d.d.d.d.d.d.d.d.d.d.d.d.d.d.d.d.d.d.d.d.d.d.d.d.d.K o . .                       ",
"                      . . o K d.d.d.d.d.d.d.d.d.d.d.d.d.d.d.d.d.d.d.d.d.d.d.d.d.d.d.d.d.d.d.d.d.d.K o . .                       ",
"                      . . . 6 9 9 F q.d.d.d.d.d.d.d.d.d.d.d.d.d.d.d.d.d.d.d.d.d.d.d.d.d.d.q.F 9 9 6 . . .                       ",
"                      . . . . . . 4 <.d.d.d.d.d.d.d.d.d.d.d.d.d.d.d.d.d.d.d.d.d.d.d.d.d.d.<.4 . . . . . .                       ",
"                      . . . . . . 4 q.d.d.d.d.d.d.d.d.d.d.d.d.d.d.d.d.d.d.d.d.d.d.d.d.d.d.q.4 . . . . . .                       ",
"                      . . . . . . - ^ ^ ^ ^ ^ ^ ^ ^ ^ ^ ^ ^ ^ ^ ^ ^ ^ ^ ^ ^ ^ ^ ^ ^ ^ ^ ^ ^ - . . . . . .                       ",
"                            . . . . @ @ @ @ @ @ @ @ # # @ @ @ @ @ @ @ @ @ @ @ @ @ @ # # @ @ . . . .                             ",
"                            . . . . . . . . . . . . . . . . . . . . . . . . . . . . . . . . . . . .                             ",
"                            . . . . . . . . . . . . . . . . . . . . . . . . . . . . . . . . . . . .                             ",
"                              .                                                                 .                               ",
"                                                                                                                                ",
"                                                                                                                                ",
"                                                                                                                                "
};
