/* XPM */
static char *florian_becavin_herbesondirt__1_1715528990[] = {
/* columns rows colors chars-per-pixel */
"64 64 252 2 ",
"   c #275A5E",
".  c #15675C",
"X  c #1D7753",
"o  c #2E7E4A",
"O  c #3C7249",
"+  c #296D52",
"@  c #386C5B",
"#  c #257C5B",
"$  c #2C7B5B",
"%  c #2B7956",
"&  c #347D54",
"*  c #3B7C54",
"=  c #327C5B",
"-  c #3B785B",
";  c #2D6D4B",
":  c #18706B",
">  c #296968",
",  c #386468",
"<  c #2C7C63",
"1  c #237B6A",
"2  c #2C7C6B",
"3  c #277664",
"4  c #337D64",
"5  c #317B6C",
"6  c #3A7964",
"7  c #357775",
"8  c #2B7077",
"9  c #335E67",
"0  c #43754B",
"q  c #486D5D",
"w  c #556E59",
"e  c #47795A",
"r  c #55785C",
"t  c #446C4A",
"y  c #77785B",
"u  c #66745C",
"i  c #496D67",
"p  c #457966",
"a  c #547967",
"s  c #4C6678",
"d  c #516F73",
"f  c #656C65",
"g  c #6A7767",
"h  c #76766A",
"j  c #697B78",
"k  c #777B76",
"l  c #6C6C77",
"z  c #907A5A",
"x  c #867B6A",
"c  c #887675",
"v  c #9B7B71",
"b  c #8E7669",
"n  c #BE7B68",
"m  c #C27F65",
"M  c #2C873A",
"N  c #56953A",
"B  c #5AAA37",
"V  c #65A63B",
"C  c #6CAC3D",
"Z  c #2B894B",
"A  c #338A4C",
"S  c #3C8E4C",
"D  c #3A8448",
"F  c #3A954D",
"G  c #2D845B",
"H  c #2C8B5D",
"J  c #278856",
"K  c #358354",
"L  c #3C8455",
"P  c #358C55",
"I  c #3B8D55",
"U  c #33845C",
"Y  c #3A845C",
"T  c #348C5C",
"R  c #3B8C5C",
"E  c #2B915C",
"W  c #289557",
"Q  c #349355",
"!  c #3D9353",
"~  c #35915D",
"^  c #3C925C",
"/  c #3A9856",
"(  c #2E9440",
")  c #1A9264",
"_  c #2D8463",
"`  c #248C64",
"'  c #2C8B64",
"]  c #2D836C",
"[  c #2D8B6A",
"{  c #248569",
"}  c #348564",
"|  c #3A8464",
" . c #358C63",
".. c #3A8C63",
"X. c #33856B",
"o. c #3B846A",
"O. c #358C6A",
"+. c #3A8C6A",
"@. c #2D9364",
"#. c #2C936C",
"$. c #249363",
"%. c #359263",
"&. c #3B9264",
"*. c #34926B",
"=. c #3B926B",
"-. c #359B63",
";. c #2B8974",
":. c #348672",
">. c #3A8571",
",. c #348B73",
"<. c #3A8B72",
"1. c #378A7A",
"2. c #3D9171",
"3. c #349274",
"4. c #2A9873",
"5. c #3AA361",
"6. c #478A49",
"7. c #558C4A",
"8. c #44954B",
"9. c #4B9A4C",
"0. c #48974A",
"q. c #539C4C",
"w. c #5A9749",
"e. c #438D54",
"r. c #43845C",
"t. c #4C855C",
"y. c #438D5B",
"u. c #498A56",
"i. c #568B59",
"p. c #439454",
"a. c #4D9453",
"s. c #459954",
"d. c #43945C",
"f. c #49945C",
"g. c #449A5C",
"h. c #4A9B5C",
"j. c #4C9A54",
"k. c #549455",
"l. c #549B53",
"z. c #569859",
"x. c #669757",
"c. c #748A55",
"v. c #4AA24B",
"b. c #58A448",
"n. c #57A453",
"m. c #4EA255",
"M. c #67A544",
"N. c #75A54A",
"B. c #448663",
"V. c #418D64",
"C. c #428C6B",
"Z. c #498B66",
"A. c #558B65",
"S. c #439363",
"D. c #4B9364",
"F. c #4D9A62",
"G. c #42926A",
"H. c #459968",
"J. c #559566",
"K. c #468874",
"L. c #568976",
"P. c #4D9275",
"I. c #698A6B",
"U. c #7A876C",
"Y. c #6F8B73",
"T. c #73916B",
"R. c #92885E",
"E. c #8C8F5F",
"W. c #BE995D",
"Q. c #888868",
"!. c #9B8768",
"~. c #96976A",
"^. c #888774",
"/. c #968D75",
"(. c #8F9377",
"). c #9C9776",
"_. c #849468",
"`. c #A78967",
"'. c #BC856B",
"]. c #B28C6C",
"[. c #B88968",
"{. c #A6956A",
"}. c #BC9363",
"|. c #BD936D",
" X c #BD9A6D",
".X c #B89967",
"XX c #A68974",
"oX c #BB8E74",
"OX c #B88A76",
"+X c #A99573",
"@X c #BC9573",
"#X c #BD9A73",
"$X c #BB9579",
"%X c #B69877",
"&X c #B3A274",
"*X c #CC9059",
"=X c #C38B64",
"-X c #C48D6D",
";X c #CB8D6C",
":X c #C88769",
">X c #D58B6B",
",X c #C49465",
"<X c #CC9365",
"1X c #C39C64",
"2X c #C5946D",
"3X c #CA946D",
"4X c #C49A6D",
"5X c #CB996D",
"6X c #CA9966",
"7X c #D29465",
"8X c #D2936D",
"9X c #D69769",
"0X c #C58574",
"qX c #C48D72",
"wX c #CB8D72",
"eX c #C48B7A",
"rX c #CB8D7A",
"tX c #C88479",
"yX c #DC8D73",
"uX c #D28C7B",
"iX c #D48C74",
"pX c #C59472",
"aX c #CA9473",
"sX c #C49A74",
"dX c #CB9973",
"fX c #C4947B",
"gX c #CB957A",
"hX c #C49B7A",
"jX c #CB9A7A",
"kX c #D29374",
"lX c #DA9374",
"zX c #D29974",
"xX c #D3947A",
"cX c #D49B7C",
"vX c #DA9778",
"bX c #E19776",
"nX c #E99B71",
"mX c #D7A16E",
"MX c #D5A173",
"NX c #C5A172",
"BX c #6F7385",
"VX c #A1738A",
"CX c #936899",
"ZX c #348282",
"AX c #B69481",
"SX c #A39981",
"DX c #C78C86",
"FX c #C69783",
"GX c #D49585",
"HX c #D28A83",
"JX c #CCA285",
"KX c #E2A287",
/* pixels */
"%.} } | | U y.h.~ ..=.} +. .R Q O.%.~ [ ;. . ...X.R +. .&. .[ O.K =.+.H #.T *.I %.T B.#.=.+.Q P  . ... . .O. .*. .=.H +.U S.^ T ",
" .J ..% +.% V.d. .T T &...&.+.O.T R = r.u.R ..' ~ '  .'  .....R =.' 5 R R >.] ..@.o. .&.8.x.{ <. . . . .} U G  .T  .*. .&.S.H...",
" .U ..U  .G  .R ,.%.^ h.s.j.^ R 2 | L 0.D 5 S.O.%.O.%.T ..R j.e.E H G.0.* * [ @.&.W ..H ~ ..C.@.%. . .....U T ^ R T  . . .T ..&.",
" ...R S.} O. . . .T R d.R C.>.5 A <.&.,.] T X./ p.y.S.R  .&.g./ T ,.G 8.> D.3 ` L G.] 3.W R p.[  . . .....R d.S.=...O.%. .R  .%.",
" .T &.T &.O.=.O. . .&.R I R y.o X.h.=._ Q &.} G.0.a.d.} ..} :.O.C.!  .T :.O.K o.p.5 ,.P X.w.z.%. . . .T ..S.S.d.G.K O.T +.R O.*.",
" . .&.U %.' ..T T  .+._ X.X.<.$  .g.0.k.B.d.h.T T / ..] ..U 4 R | 9.g.1.J =.i.T.$.{ 6.e | ,.k.F  .&. . . .S.d.R  .J O.P o.R _ } ",
"%.%. . . . .R y.&.*.&. .&. ...T &. .K q.e.D.j.2 X.O.O. . .T R R  .C.^ ....4 BX{.+.U.- q.^ / T y. . ... . . . .T ..T ] d.4 d.$ } ",
"O. . .*. . .d.h. . .H %. . . .O._ %.%.O.&.&.2 p.R = ..R O.}  .O.W | o.V 4 ; h gX3XoXi 8 7.x.e F.....O.&.%. . .%. .T :.P 4 d.5 +.",
"&. .T ,.P y.n.w...W H + 3.R R A.^.*.^.6.n.p q.M.D G n.{ z.$ I.I._./.U.e e v tX0X XwXtXv w e @ A.(. .E C.,.A &.:.~  .&. . .+.R ~ ",
"I R O.O.O.T D.y.' i.N.u.{ 3 - v nXE.^.i p b.6.f.> > 7.& 0 q ).1X3X>X;X].OXwXkX1X,X3XkXwX].$X[.gX].r A 8 V z.[ &.+.R &...T O.,. .",
"p.s.&.! O.T *.~ x.M.7.w.O VXDX2X.X5X7X;Xg N s j x Y.x g ].%XwXaX4X3XkXgXfX-X2X.XsX@X#XpXaXxX3X5XjXR.h s O | E d.a.p.F.&.O.O.%.@.",
"&.=.} Y .. . .*.+.s.l., BX5X*XkX}.kXoXGX(.g OX7XpXaXvXzXxXpXgXaX$X$XsXpXqX0XrXxXkX-XhX@XaX3X2X X2XhX9X#Xg S [ e.p.d.s.p.T  .~  .",
"O.X.U | S.} G +.M.X + g KX:X%XNXgX@XhXwX7XFX9XpXFX6X6X,XhXhX3X<XkX3X2X5X3XaXaXkX5X,XaX2X5X8X3XkXFXkXwX X].l : +.+.R ..+.R ..o...",
"T G I % D.= K +.L > CX0X*XzXgXpX9X,XcX=X,X XsXeX-XsX$X[.zX;X-XgXpX2X,X5X2X|.|.4X#X2X2X|.pX@XpX-X<X2X1XDXvX]., R  .T  .=.+...S.d.",
" .G ..% +.$ } +.J j 8XsXzX|.pX:X3XwX@XaXaX3XgX6XsX=XiXyXaXfXaXOXhXpXjXaXaXwXaXzXwXqXwXqXgXpXfXeXHX.XaX8XeXmXc K. .+.Q p.d.R d.S.",
" .%.2.T O.^  .^ ).~.aX1X;XhXfXaXfX<X&X>XaX3X@XaXaX3XsXpX,XgX6XaX-X;X3XsX@XaXaX2XpX5X2X6X5X3XaX3XiX|.sX2XrX7XSXx...^ T &.&. ...P ",
"....H  .;.} | G.aXaXaX5X2X2X3XpX3XpXpXqXaXpXpX2XaXaXpXpXaX3X2X X4X|.pXaX2X3XaXpXgXaXdX2X2XpXpXpX#X=X7XoX,X5XAX*X&...+.y.V.R A O.",
"$.H [ P B.t.& ].qXaXaXaX2XdXpXaXdXaX-XpXaXdXpXpX-XpXpXhXsXpX;XaX3XaXrXwXaX2X2XaXpXpXaX3X5XdXaXaX5XhXyXjXgXpXL.A.O.=. .! h.H.g.<.",
"i.i.S.! ~ ~ ) ).-X2X2X3XpXsX3XaXaX2X-X-XpXdX3X4XoX-XpXaXsXpXaXaXaXcX'.[.cXdX,XdX-XqX3X3X2XdXaXpXcX[.].'.5X{.Y...A %.X.~ ..S.! | ",
"d.f./ p.+.R t.c aXaXpXpX3X2X2X2XaXpX-X-XaXdX2X3XsXwX;XaXaX4X2X2X2X[.pXsX2X4XaXpX-XaXdXaX2XpXpXpXsXvXaXoXjXQ.X.o.O.O.^ Q  .+.R ..",
"'  .E ~ ;.T I g zXdX2XpXaXpX2X-XpXaXpXpXaXaXpXdX3X3X3X3XdX2X-X-XzX3XpX2XaX3XaXpXaXpXaXsXaXaX2X-X,XpX<XdXx e J ^ +.4  .T  .&. .O.",
"#.T K.R O.B.+ !.dX2X2XpXpXaX2X3XsXdXaXdXaXpX2XaXaX2XsX X|.aXkXxXkXjXqXaXkX3X-XjXdX2X2X3XaXaXaX2XsX}..XMXb i.N.b.D < } X.]  .T O.",
"T Q +.H #.a i OXdX2X2XaXaXaX2XaXpX3X2XpXaXqX-X3XaX4X XsX3XaXpX%XQ.y ).JX-X:XaXfXaX2X2XaXaXaX3XaX#X9XaX:XGXf E r.:.2 8.I 2 :.O.~ ",
"X.%. .*.;.x n hX3X2XpXjXpX2X;XaX4X2XpXaXaXpX-XaX-XpXpXyXbXfXQ.i.R e t y FXkX:XaX2XpXpXdXaXqX2XaXwXeX#X9X%X* a.+.Q _ V.= 4 S.&.T ",
"S.A <.+.u.T.2XyX|.pXuX0X|.4X;XjXpX>XjX X2XzX|.2X8X5XGXg c J.I. .D.e.9.# f >XdXwXpXpX-X-XwXqXpXaXwXaXaX3XgXa 3 a.I S.G.R ^ T %.O.",
"{ m.H.d.V.p {.'.aXpXwXwXsXdX3XpXsX:XaXsXaXaX-XaX!.h c * Y J  .+.:.P x.... c DX}.dXaX;XqXpXaXsX3X2X:X|.3XvXc.a.N.U &.d.T  .}  . .",
"..p.7.Q 3.$ p x kX2X2XwX4X4X2XsX X:XaXsX:Xn cXJXr I - % Z.C.O.~ ~ O.0._ 7 t.@ -X3X2X2X2XsXsX4X2XsX3XwXeXtXb 6 { ~ %.~ U R | | $ ",
"Y ' D.{ X.q.6.i 3XsXsX3X3X2XsXpXsX3XaX2XaXwXjXz p z.B N - ;.%.J ' X.v...D.9.+ d 2XaXaX2X4X2X,XdXfX X5XwX|.[.c > %. . .U ..R } $ ",
"] e.J S 4 ZXi.@ qXgXpXpX3XaXgXpX2XaXaX-XdXaXFXz 0 a.O.7 2 ' } P.=.Q B.,.;.< Z.- -XaXaXpXpXsXaXaX;X6XpXpXhXbX-Xr _  .R T +.X.+.T ",
"2 l.K Z.3 ` q.> !.gX;X[.aXaXaX-X3XaXpX2X@X-XhX~.Y.K.! 0.8.h.-.` O.T J F D.3  .h fXpXqX-XaXaXwXqXzXkX3X@XfXqXQ.{ }  .&.U ....O. .",
";.[ | &.T V.D.w.g oXwX|.pXaXwX-XxXgX2XdXdXwXpXE.}  .L.d.9.f.....~ O.%.A P Q C.I.].pXpX-XaXjXaX-X%XwX<X1XaXaX~.&.T  .*. .&.T  .O.",
"R F  .' &.} U T t $XlX XNXaXaX2X-XpX2X2X2X8XkX%X=.I E ) <.X.B.@.` B.| +.+.} R ..{.@XaXaX3XaXpXpXwXxX5X}.oXvX2XQ.' @.%. ... . ...",
"..} .. .T  .+.} P.XXiXhX%XyX}.aXaX4X-XwX2X,XoXI.I C.& 4._ ] p.U T *.^  .<.O.H #.+X$XdX3X5XaXsX3X2X4X8XwX#X3XhXr v.%.S / O.C.@.X.",
"&.T %. .&.&.&. .u.{.8X=X3XkX<XsXaX4X3XwXdXkXoXe R ;.} 4 k.1 { G.y.b.A.v.R I P.t.`.oXaXaXpXpX2XaXpX4X;XqX@X2XoXw e ! G z.l.S.J ^ ",
"' E ~ T O.]  .Q I.Q.9XsX,XjXgX4X2X2X=X'.sXyXOXe l.r.T S p X +.6 T f.9./ O.W - XX].@XaX2XdXsXaX3XpX2X;XqXhXkXfXy t.B G.>.t.V.Q T ",
"%.%.O.o.H.S.%.X.=.} ^.jX3X3XDX}.2X2XaX2XgXaX].r 6.] *.....=.%.W [ R ' ` 1.6.0.k gXaX3X,XsXpXpX;XaXpXqX-XsXaXpX!.r * O.' &.....O.",
" ...+.e.z.I K 5 < K 6 [.NX2XtX<XaXsXaX=X,XsXpX].VX. H K +.h.( K. .i.f.1.6.x.j.$ -XpXaX2XpXpX-X;XaXpXpX2XpX3XgX].v L.' R *.$.C.:.",
"} h.n.9.F.L R S.V.7.i '.kX3XhX#X-X2XgX5XdX#XsXlX;Xl 4 B C.D.D.U -.q.y.u.Z.B ; BX3X3X2X3XsXpX2X3X3X2XdX6X3XpXaX5X9X%XT  ...#.y.[ ",
"R T R I g.I L ..D.8.e ^.5X<XgXiXjXaXaX,X2X'.-X8X5XpXO - G >.K.%.' ' ..B i 8 l 8XdX3X2X2XaXaX2XaXdXpXpX3X3XeXqX2XoXb % E f.f. .^ ",
" . .O.] ,.O. .+.E | % BXvX X:XsX1XqXpX2XxXrXeX@XpX3XDX`./._.$.p.K.R V.  l tXwX X2X2X4XdXgXwX-XpXdXqXfX3XkXeXfX3X%X+ y.1 ,.w.2.U ",
" .T Y u.| L 2 <.|  .> CX5X2XpX1XpX-X2XaXaXaXpX-X-XkXwXqXgX].`.+X~.Q.x `.sXzX3X-XaXwXeX'.pXaXpXaXaXeXaX2XgXfXpXqXx e X.D S.2 e...",
"O.....d.& R < [ g.q.@ oXzXwXwXpXpX2X2XaXaXaX3X2X5XaX-X-XsX#X@XsX8XwXDXgXaX3X2XsX3XaXpXpXaXdX3XaX3XwXaX,XgXpXsX:X* C x.z.& : 3.U ",
"T %.} } 3 T # T _ % e ].2XgXxX2XaX;X3X3X-XqXpX3X X2X2X2XdXjX,X2X8X3XaXaX-X:X-X2X,X3XaX2X3X,X2X3X3X-XdX,XqXqX3XqXe 4 } d.G D.M.*.",
"&.T +.+.<.R  .&.1 s ].vX1X6X3X#XaX2XaX2X-XqXpXaX XdXaX3XaX2X2X3X#X.X.X|.@XpXaX2X3X3XwX2X3X3X3XaX5X2X2XpXOX:XaXFXoX- $.v.f.S.9. .",
"X.U R ! D.! ..+.D & h dXqX.X5XxXaX3X3X3XpXqXaXaXpXgXaX-X2XpXaXdXgX3X5X5XwXeXgXdXaXaXpX2XaXaXaXaXaX2X,XpX$X;XzX/.h L.U ^ Z.o.&.T ",
"O.&.&.s.d.F.C...N.A.c eXHXsXaX>XaXpX5XaXpXaXaX2XaXwXwX-XpXhXpXqXuXaX5XaXpXrXaXaXaXpX-X-XaXaXpXeXaXsX5XpXgX8X2Xu M =.G E  .z.6.,.",
" .T X. . .S...I W d lXwX1X5XHXOXpXpX3XaXqXaXaX5XpX2X-XaXpXaXpX'.pXsXsX|.aXaX3X2X2XpX-X2X3X3XpXqXpXsX5XwXfX8X].q i.J #.K._ 5.Q O.",
" .T =.T O.T  ...!.+XaX1XwX;XjX}.aXqXaXaX2X2X3X5XsX2X3X4XpXpXgXaX-XaXpX2X5X3X2XaX3XaXaXaXdX3X2XaXeX2X8XaX@X<X@XK.w.p.U } &.T O. .",
"^ H...I  .%. .R (.XX7X#XsX2XlXqX2X2XpXfXpX3X2X3X3XaXdX,X2X2XpXgXkXaX}.2XgXwXiX3XkX;XhX2XDXpXgX3XgX<X3X:XAX6X2XA. .} R Y = | = &.",
" .p.h.P ,. .=...K ^.wXgX7X8XaXsXaX2X2X2XaXaXdX3XqX@XhXpX5X5X5X3X XsXpX;X3X6X4X%X@X.XsX*X<X1XaX#X3XsXtX5X7X>XSXY. .>.! | | I 4  .",
"+.o.o.R 2.[ X. .] * y pXFXhX|.1X5XpX-X-XpXaX5X2X0XwXgXaX2X3X,X3X4XpXtX-XNX<X3XsX0XiXaXsXgXkXjXwXsXsX-XeXXXf > _ } U ..R  .+.G %.",
"p.p.R d.T / T  .Q B.s W.*XyXpXaXaX2X-X-XaX2X2X2X2X2X2XaXaXgXxXwX2XcX:X;X2XFXFXvXdXaX X%XpX<XdX3X@X1X-XgXY.l.6.9.# _ ........ .%.",
"a.v.s.m.} &.O.+.O.w.. BXk <X0XtXaXaXaXaXpXaX3X2X2X,X6X2X#X@X|.|.<XfXhXcXyX^.g z :X+X7X8XzX3XtXAXuXaXnX`., * b.9.# } &. ...%. . .",
"V. .O.&.+.U X.&.%.J : 2 : i XXkX2XaXdXpXaXpX2X3XgXaX8XaXsX@X2X<XfX6X{.f h N 0.9 a > u h aX9X=X9XgX2Xh @ a.T 7 ;.:.&.2.T T ,.T O.",
"}  .:.} L 0.d.$ O.F A +.M.D g cX|.2XpXpXpXqX-XpX#XsX=XpXFXGXxXlX}./.r R M F.C.$ n.T 7.- OX+X_.pX+XI.3 0.6 g.6 I } *.%. . . . ...",
"^ T G ^ % B.5 $ C.[ ~ 1.y...j !.2XsXpXqXaXaXqXwX3XzXMX@Xz y Q.).$XR G A.D.H +...8._ J.6 /.I.J I.E.' X.R ~ <. .I _ T O.T T ] U 4 ",
"U  . . .O. . .&...} G %. .~ [ [ ^ U.J.Q.= w y DX|.x k e p w.2 &.+. .~ ~ X.D.h.R a.p.T '  .R  .%.&.R T T &. .O. ... .O.U T | * & ",
"=... . .O.O. .U ..R # ..X.^ &.~ ] J.k.t.k.| q Y.(.a D . 5 z.=.W ~ } O.&...h.f...F.R  .3...&.G.K .. ...T  .} O.+. . . .'  . .} _ ",
" . .T T ..*.O. .U | 4 C.o.S.+.T  .%.R Q =.=.H } > e b...&.' &.y.P X.O. .^ S.y.R T 2  .~ X.S.h.+. . .} ..U } _  .R T &.P I f.S.D.",
"T R d.^ R T O.O.T Q Q j.j.n.d.R R  .P T O.p H _ k.u.-.Y w.i.w.g.T O.O.P ..o.U R $ U _ _ I &.C.R  . .U ..Y | U G %. .%.R p.z.k.l.",
"..f.h.f.d.R } ..,.%.=.! y.h.G.+.} [ 7.3 w.3 G ,.1 4 X.R f.&.y.:. .*. .T R o.} R 4 R R } I T O.T  . .T ......Y R O.[ [  ...S.^ ^ ",
"..S.d.d.S.V... .~ H O.U } R  .T %.{ t.{ z.1 ..,.Q ^ U O.+.v.g.U ^  .X.O.d.d. ...R ..f.h.O. .~ '  .%.....T R &.S.f.y.G... . .[ ' ",
"..T R R &.&...T  . .1.3.,.&.+. .Q ' } ..5 ' ^  .>.&.F %.X.p.&. . .T  .X.d.g... . .T S.S. . .=.T  . . . .T T R S.k.e.S.R .... . .",
"[  .%. . . . .H ..T &.P T Q  .%. .S.#...../ +.%...' o.*.*. .' +.<.Q ^ O.R &...T @.%.R |  .O.} R +. .*. .*. ...R  .' #.'  .&....."
};
